<?xml version="1.0" encoding="utf-8"?>
<!-- Generator: Adobe Illustrator 24.0.1, SVG Export Plug-In . SVG Version: 6.00 Build 0)  -->
<svg version="1.1" id="Layer_1" xmlns="http://www.w3.org/2000/svg" xmlns:xlink="http://www.w3.org/1999/xlink" x="0px" y="0px"
	 viewBox="0 0 50 50" style="enable-background:new 0 0 50 50;" xml:space="preserve">
<style type="text/css">
	.st0{fill-rule:evenodd;clip-rule:evenodd;fill:#4C2714;}
	.st1{fill-rule:evenodd;clip-rule:evenodd;fill:#A4812E;}
	.st2{fill-rule:evenodd;clip-rule:evenodd;fill:#717631;}
</style>
<path class="st0" d="M9.4,25c0-8.6,7-15.6,15.6-15.6c8.6,0,15.6,7,15.6,15.6c0,8.6-7,15.6-15.6,15.6C16.4,40.6,9.4,33.6,9.4,25z
	 M7,25c0-9.9,8.1-18,18-18c9.9,0,18,8.1,18,18c0,9.9-8.1,18-18,18C15.1,43,7,34.9,7,25z M33.2,32.6c0-0.3-0.3-0.6-0.6-0.6
	c-0.3,0-0.6,0.3-0.6,0.6c0,0.3,0.3,0.6,0.6,0.6C32.9,33.2,33.2,32.9,33.2,32.6z M16.8,32.6c0-0.3,0.3-0.6,0.6-0.6
	c0.3,0,0.6,0.3,0.6,0.6c0,0.3-0.3,0.6-0.6,0.6C17.1,33.2,16.8,32.9,16.8,32.6z M32.6,16.8c-0.3,0-0.6,0.3-0.6,0.6
	c0,0.3,0.3,0.6,0.6,0.6c0.3,0,0.6-0.3,0.6-0.6C33.2,17.1,32.9,16.8,32.6,16.8z M17.4,16.8c0.3,0,0.6,0.3,0.6,0.6
	c0,0.3-0.3,0.6-0.6,0.6c-0.3,0-0.6-0.3-0.6-0.6C16.8,17.1,17.1,16.8,17.4,16.8z"/>
<path class="st1" d="M25,22c-2,0-3.6-3.3-3.6-7.4c0-1.3,0.2-2.5,0.4-3.5c0.1-0.2,0.2-0.4,0.5-0.4c0.9-0.2,1.8-0.2,2.7-0.2
	c0.9,0,1.8,0.1,2.7,0.2c0.2,0,0.4,0.2,0.5,0.4c0.3,1,0.4,2.3,0.4,3.5C28.6,18.7,27,22,25,22z M25,13.7c0.2,0,0.3,0,0.5,0
	c0.2,0,0.4,0.2,0.4,0.4c0,0.2,0.1,0.5,0.1,0.7c0,0.8-0.2,1.4-0.5,1.7c1-0.4,1.7-2.2,1.7-4.4c0-0.2,0-0.4,0-0.6l0,0
	c0-0.1,0.1-0.2,0.2-0.2c0.1,0,0.2,0.1,0.2,0.2c0.1,0.7,0.2,1.4,0.2,2.1c0,3.1-1.2,5.7-2.7,5.7c-1.5,0-2.7-2.5-2.7-5.7
	c0-0.7,0.1-1.5,0.2-2.1c0-0.1,0.1-0.2,0.2-0.2c0.1,0,0.2,0.1,0.2,0.2v0c0,0.2,0,0.4,0,0.6c0,2.1,0.7,3.9,1.7,4.4
	c-0.3-0.3-0.5-1-0.5-1.7c0-0.3,0-0.5,0.1-0.7c0-0.2,0.2-0.3,0.4-0.4C24.7,13.7,24.8,13.7,25,13.7z M25,28c-2,0-3.6,3.3-3.6,7.4
	c0,1.3,0.2,2.5,0.4,3.5c0.1,0.2,0.2,0.4,0.5,0.4c0.9,0.2,1.8,0.2,2.7,0.2c0.9,0,1.8-0.1,2.7-0.2c0.2,0,0.4-0.2,0.5-0.4
	c0.3-1,0.4-2.3,0.4-3.5C28.6,31.3,27,28,25,28z M25,36.3c0.2,0,0.3,0,0.5,0c0.2,0,0.4-0.2,0.4-0.4c0-0.2,0.1-0.5,0.1-0.7
	c0-0.8-0.2-1.4-0.5-1.7c1,0.4,1.7,2.2,1.7,4.4c0,0.2,0,0.4,0,0.6l0,0c0,0.1,0.1,0.2,0.2,0.2c0.1,0,0.2-0.1,0.2-0.2
	c0.1-0.6,0.2-1.4,0.2-2.1c0-3.1-1.2-5.7-2.7-5.7c-1.5,0-2.7,2.5-2.7,5.7c0,0.7,0.1,1.5,0.2,2.1c0,0.1,0.1,0.2,0.2,0.2
	c0.1,0,0.2-0.1,0.2-0.2v0c0-0.2,0-0.4,0-0.6c0-2.1,0.7-3.9,1.7-4.4c-0.3,0.3-0.5,1-0.5,1.7c0,0.3,0,0.5,0.1,0.7
	c0,0.2,0.2,0.3,0.4,0.4C24.7,36.3,24.8,36.3,25,36.3z M22,25c0,2-3.3,3.6-7.4,3.6c-1.3,0-2.5-0.2-3.5-0.4c-0.2-0.1-0.4-0.2-0.4-0.5
	c-0.2-0.9-0.2-1.8-0.2-2.7c0-0.9,0.1-1.8,0.2-2.7c0-0.2,0.2-0.4,0.4-0.5c1-0.3,2.3-0.4,3.5-0.4C18.7,21.4,22,23,22,25z M13.7,25
	c0-0.2,0-0.3,0-0.5c0-0.2,0.2-0.4,0.4-0.4c0.2,0,0.5-0.1,0.7-0.1c0.8,0,1.4,0.2,1.7,0.5c-0.4-1-2.2-1.7-4.4-1.7c-0.2,0-0.4,0-0.6,0
	l0,0c-0.1,0-0.2-0.1-0.2-0.2c0-0.1,0.1-0.2,0.2-0.2c0.7-0.1,1.4-0.2,2.1-0.2c3.1,0,5.7,1.2,5.7,2.7c0,1.5-2.5,2.7-5.7,2.7
	c-0.7,0-1.5-0.1-2.1-0.2c-0.1,0-0.2-0.1-0.2-0.2c0-0.1,0.1-0.2,0.2-0.2h0c0.2,0,0.4,0,0.6,0c2.1,0,3.9-0.7,4.4-1.7
	c-0.3,0.3-1,0.5-1.7,0.5c-0.3,0-0.5,0-0.7-0.1c-0.2,0-0.3-0.2-0.4-0.4C13.7,25.3,13.7,25.2,13.7,25z M28,25c0,2,3.3,3.6,7.4,3.6
	c1.3,0,2.5-0.2,3.5-0.4c0.2-0.1,0.4-0.2,0.4-0.5c0.2-0.9,0.2-1.8,0.2-2.7c0-0.9-0.1-1.8-0.2-2.7c0-0.2-0.2-0.4-0.4-0.5
	c-1-0.3-2.3-0.4-3.5-0.4C31.3,21.4,28,23,28,25z M36.3,25c0-0.2,0-0.3,0-0.5c0-0.2-0.2-0.4-0.4-0.4c-0.2,0-0.5-0.1-0.7-0.1
	c-0.8,0-1.4,0.2-1.7,0.5c0.4-1,2.2-1.7,4.4-1.7c0.2,0,0.4,0,0.6,0l0,0c0.1,0,0.2-0.1,0.2-0.2c0-0.1-0.1-0.2-0.2-0.2
	c-0.6-0.1-1.4-0.2-2.1-0.2c-3.1,0-5.7,1.2-5.7,2.7c0,1.5,2.5,2.7,5.7,2.7c0.7,0,1.5-0.1,2.1-0.2c0.1,0,0.2-0.1,0.2-0.2
	c0-0.1-0.1-0.2-0.2-0.2h0c-0.2,0-0.4,0-0.6,0c-2.1,0-3.9-0.7-4.4-1.7c0.3,0.3,1,0.5,1.7,0.5c0.3,0,0.5,0,0.7-0.1
	c0.2,0,0.3-0.2,0.4-0.4C36.3,25.3,36.3,25.2,36.3,25z"/>
<path class="st2" d="M33.8,32.6c0-0.7-0.5-1.2-1.2-1.2c-0.7,0-1.2,0.5-1.2,1.2c0,0.7,0.5,1.2,1.2,1.2C33.2,33.8,33.8,33.3,33.8,32.6
	z M17.4,16.2c0.7,0,1.2,0.5,1.2,1.2c0,0.7-0.5,1.2-1.2,1.2c-0.7,0-1.2-0.5-1.2-1.2C16.2,16.8,16.7,16.2,17.4,16.2z M25,26.4
	c-2.3,0-4.2,3.9-4.2,8.7c0,0.5,0,0.9,0.1,1.4c0,0,0,0,0,0c0,0.2-0.1,0.3-0.3,0.3c0,0-0.1,0-0.1,0c-0.6-0.2-1.2-0.5-1.7-0.8
	c-0.3,0.4-0.5,0.8-0.9,1.1c-0.1,0.1-0.3,0.2-0.5,0.2c-0.1,0-0.2,0-0.3-0.1c-0.9-0.6-1.7-1.2-2.4-1.9c-0.7-0.7-1.4-1.5-1.9-2.4
	c-0.1-0.1-0.1-0.2-0.1-0.3c0-0.2,0.1-0.4,0.2-0.5c0.4-0.3,0.8-0.6,1.1-0.9c-0.3-0.5-0.6-1.1-0.8-1.7c0,0,0-0.1,0-0.1
	c0-0.2,0.1-0.3,0.3-0.3c0,0,0,0,0,0c0.5,0,0.9,0.1,1.4,0.1c4.8,0,8.7-1.9,8.7-4.2c0-2.3-3.9-4.2-8.7-4.2c-0.5,0-0.9,0-1.4,0.1
	c0,0,0,0,0,0c-0.2,0-0.3-0.1-0.3-0.3c0,0,0-0.1,0-0.1c0.2-0.6,0.5-1.2,0.8-1.7c-0.4-0.3-0.8-0.5-1.1-0.9c-0.1-0.1-0.2-0.3-0.2-0.5
	c0-0.1,0-0.2,0.1-0.3c0.6-0.9,1.2-1.7,1.9-2.4c0.7-0.7,1.5-1.4,2.4-1.9c0.1-0.1,0.2-0.1,0.3-0.1c0.2,0,0.4,0.1,0.5,0.2
	c0.3,0.4,0.6,0.8,0.9,1.1c0.5-0.3,1.1-0.6,1.7-0.8c0,0,0.1,0,0.1,0c0.2,0,0.3,0.1,0.3,0.3c0,0,0,0,0,0c0,0.5-0.1,0.9-0.1,1.4
	c0,4.8,1.9,8.7,4.2,8.7c2.3,0,4.2-3.9,4.2-8.7c0-0.5,0-0.9-0.1-1.4c0,0,0,0,0,0c0-0.2,0.1-0.3,0.3-0.3c0,0,0.1,0,0.1,0
	c0.6,0.2,1.2,0.5,1.7,0.8c0.3-0.4,0.5-0.8,0.9-1.1c0.1-0.1,0.3-0.2,0.5-0.2c0.1,0,0.2,0,0.3,0.1c0.9,0.6,1.7,1.2,2.4,1.9
	c0.7,0.7,1.4,1.5,1.9,2.4c0.1,0.1,0.1,0.2,0.1,0.3c0,0.2-0.1,0.4-0.2,0.5c-0.4,0.3-0.8,0.6-1.1,0.9c0.3,0.5,0.6,1.1,0.8,1.7
	c0,0,0,0.1,0,0.1c0,0.2-0.1,0.3-0.3,0.3c0,0,0,0,0,0c-0.5,0-0.9-0.1-1.4-0.1c-4.8,0-8.7,1.9-8.7,4.2c0,2.3,3.9,4.2,8.7,4.2
	c0.5,0,0.9,0,1.4-0.1c0,0,0,0,0,0c0.2,0,0.3,0.1,0.3,0.3c0,0,0,0.1,0,0.1c-0.2,0.6-0.5,1.2-0.8,1.7c0.4,0.3,0.8,0.5,1.1,0.9
	c0.1,0.1,0.2,0.3,0.2,0.5c0,0.1,0,0.2-0.1,0.3c-0.6,0.9-1.2,1.7-1.9,2.4c-0.7,0.7-1.5,1.4-2.4,1.9c-0.1,0.1-0.2,0.1-0.3,0.1
	c-0.2,0-0.4-0.1-0.5-0.2c-0.3-0.4-0.6-0.8-0.9-1.1c-0.5,0.3-1.1,0.6-1.7,0.8c0,0-0.1,0-0.1,0c-0.2,0-0.3-0.1-0.3-0.3c0,0,0,0,0,0
	c0-0.5,0.1-0.9,0.1-1.4C29.2,30.3,27.3,26.4,25,26.4z M16.2,32.6c0-0.7,0.5-1.2,1.2-1.2c0.7,0,1.2,0.5,1.2,1.2
	c0,0.7-0.5,1.2-1.2,1.2C16.8,33.8,16.2,33.3,16.2,32.6z M32.6,16.2c-0.7,0-1.2,0.5-1.2,1.2c0,0.7,0.5,1.2,1.2,1.2
	c0.7,0,1.2-0.5,1.2-1.2C33.8,16.8,33.3,16.2,32.6,16.2z"/>
</svg>
